<mxfile host="app.diagrams.net" modified="2023-08-23T23:51:57.770Z" agent="Mozilla/5.0 (Windows NT 10.0; Win64; x64) AppleWebKit/537.36 (KHTML, like Gecko) Chrome/115.0.0.0 Safari/537.36 Edg/115.0.1901.203" version="21.6.9" etag="I8qHikS1lB-naWa-m5iq" type="github">
  <diagram name="PÃ¡gina-1" id="AYhp3yTZ6ho_gyrKqVY3">
    <mxGraphModel>
      <root>
        <mxCell id="0" />
        <mxCell id="1" parent="0" />
      </root>
    </mxGraphModel>
  </diagram>
</mxfile>
